<svg width="27" height="17" viewBox="0 0 27 17" fill="none" xmlns="http://www.w3.org/2000/svg">
<path d="M16.3437 15.8166C15.9342 16.434 15.3989 16.7664 14.6562 16.7078C13.8683 16.6457 13.1194 16.4225 12.3775 16.168C12.3688 16.165 12.3625 16.155 12.3406 16.135C12.8096 15.6324 12.953 15.0559 12.6445 14.4219C12.348 13.8124 11.8406 13.5074 11.145 13.4947C11.2151 13.0124 11.0987 12.5795 10.7876 12.2069C10.4744 11.8319 10.0691 11.6391 9.56344 11.6253C9.56344 11.444 9.58397 11.2618 9.55995 11.0857C9.44974 10.2768 8.68115 9.67107 7.87767 9.75215C7.52814 9.78731 7.24827 9.95295 7.03606 10.2323C6.92988 10.3721 6.82639 10.5142 6.71552 10.6634C6.32545 9.51711 4.94546 9.1057 4.20022 10.0056C4.02492 9.78745 3.85311 9.57027 3.67767 9.3559C3.5213 9.1649 3.36747 8.97121 3.19982 8.7904C3.11566 8.69966 3.11163 8.6355 3.1723 8.52839C4.19472 6.72141 5.2123 4.91188 6.23096 3.10289C6.33055 2.92598 6.43055 2.74934 6.54961 2.53833C7.34693 3.23497 8.34277 3.29403 9.33136 3.44464C9.16585 3.67806 9.00706 3.88665 8.86491 4.10598C8.52075 4.63685 8.17538 5.16745 7.84854 5.70906C7.6931 5.96665 7.65726 6.26879 7.67485 6.56571C7.70263 7.03389 7.98626 7.3092 8.45968 7.34128C9.25337 7.3951 9.96142 7.15027 10.6083 6.7053C11.1452 6.33591 11.5849 5.8696 11.9664 5.34396C12.0152 5.27672 12.0974 5.2194 12.1762 5.19081C12.4179 5.10343 12.6637 5.02504 12.9122 4.95913C12.9903 4.93846 13.0943 4.94316 13.1654 4.9786C15.2658 6.02168 17.2579 7.24235 19.1313 8.65295C19.9287 9.25335 20.7104 9.87416 21.4939 10.4927C21.6096 10.584 21.7112 10.7029 21.7917 10.827C22.1695 11.4087 21.7802 12.1857 21.0888 12.241C20.8045 12.2637 20.5461 12.2132 20.292 12.0583C19.0007 11.2708 17.7007 10.4974 16.4036 9.71939C16.3622 9.6947 16.321 9.66798 16.2764 9.65094C16.1421 9.59939 16.0308 9.64154 15.9538 9.75604C15.875 9.87309 15.8893 9.99308 15.9883 10.0932C16.0326 10.1381 16.0913 10.1696 16.1462 10.2026C17.3967 10.9542 18.6465 11.7068 19.9001 12.4532C20.0125 12.5202 20.0744 12.5987 20.0555 12.7211C20.0233 12.9308 20.0036 13.1482 19.9299 13.3441C19.8366 13.592 19.6351 13.7566 19.3681 13.8027C19.1578 13.8391 18.9425 13.8544 18.7289 13.8599C18.6501 13.8619 18.563 13.8215 18.4913 13.7803C17.4084 13.1568 16.3277 12.5293 15.2449 11.9054C15.1773 11.8665 15.0977 11.8273 15.023 11.8262C14.8931 11.8245 14.8024 11.9018 14.7699 12.0325C14.7351 12.1723 14.7936 12.2732 14.9123 12.3423C15.2968 12.5665 15.6822 12.7895 16.0673 13.0125C16.7634 13.4159 17.4587 13.8205 18.1568 14.2203C18.239 14.2673 18.2754 14.3184 18.2559 14.4108C18.2316 14.5261 18.2189 14.6445 18.1869 14.7575C18.0652 15.1891 17.8305 15.384 17.3836 15.4188C17.0489 15.4449 16.7317 15.4068 16.419 15.2477C15.6308 14.8468 14.8299 14.4704 14.0303 14.0924C13.9466 14.0529 13.8209 14.0331 13.7444 14.0684C13.6701 14.1026 13.6073 14.2139 13.588 14.3019C13.561 14.4241 13.6464 14.5109 13.7577 14.5645C14.0861 14.7227 14.4142 14.8817 14.7424 15.0403C15.225 15.2736 15.7077 15.5069 16.1904 15.7403C16.2381 15.7629 16.285 15.7872 16.3437 15.8166Z" fill="white"/>
<path d="M20.2797 2.49634C21.4129 4.50923 22.5386 6.50922 23.6674 8.51446C23.1189 9.01231 22.6651 9.61217 21.9867 9.95553C21.8596 10.0198 21.7807 10.0197 21.6647 9.92425C19.0875 7.80385 16.345 5.93392 13.3498 4.44694C13.1678 4.35661 13.0087 4.33352 12.8161 4.40426C12.5044 4.51862 12.1804 4.59943 11.869 4.71446C11.7623 4.75392 11.6531 4.83567 11.5871 4.92815C11.116 5.58828 10.5654 6.15795 9.82832 6.52238C9.42174 6.72345 8.9906 6.81969 8.53597 6.79607C8.27584 6.78251 8.19758 6.68466 8.22027 6.42278C8.24201 6.17191 8.31356 5.93862 8.45611 5.73016C9.02523 4.89768 9.62094 4.08198 10.1556 3.22789C10.4774 2.71352 10.9208 2.48091 11.4838 2.38104C12.8689 2.13514 14.265 2.00386 15.666 2.13688C16.4203 2.20842 17.1621 2.40977 17.9092 2.55406C18.1462 2.59983 18.3815 2.65366 18.6184 2.69849C19.1852 2.80614 19.7272 2.68842 20.2797 2.49634Z" fill="white"/>
<path d="M26.8691 7.81913C26.8237 7.87376 26.7887 7.9453 26.7312 7.98087C26.1155 8.36167 25.4971 8.73792 24.8776 9.11255C24.7368 9.19778 24.666 9.16959 24.5715 9.00194C24.0972 8.16114 23.6241 7.31966 23.1505 6.47859C22.2348 4.85242 21.3191 3.22625 20.4034 1.60007C20.2453 1.31927 20.255 1.28061 20.5245 1.11618C21.0921 0.769873 21.6595 0.423163 22.2273 0.0769886C22.4217 -0.0415347 22.4728 -0.0293201 22.5829 0.16625C23.983 2.65215 25.3829 5.13832 26.7819 7.6249C26.8128 7.67993 26.8342 7.7406 26.8691 7.81913Z" fill="white"/>
<path d="M2.11557 9.17864C2.0396 9.14294 1.9945 9.12643 1.95423 9.10186C1.35396 8.7369 0.754096 8.37139 0.154902 8.00482C-0.0205336 7.89743 -0.0406676 7.8169 0.0628222 7.63301C1.46537 5.14214 2.86819 2.65154 4.27141 0.161206C4.37771 -0.0275189 4.43154 -0.0409416 4.6153 0.0711387C5.20604 0.431004 5.7965 0.791272 6.38657 1.15221C6.57409 1.26698 6.59342 1.33973 6.48375 1.53436C5.08214 4.0255 3.68027 6.51636 2.27557 9.00576C2.23785 9.07274 2.16886 9.12227 2.11557 9.17864Z" fill="white"/>
<path d="M5.52759 13.4127C5.58893 13.2621 5.6237 13.0926 5.71591 12.9641C6.29121 12.1623 6.8794 11.3695 7.46329 10.5737C7.63282 10.3425 7.8649 10.2664 8.14181 10.2977C8.70356 10.3612 9.15094 10.9782 9.01215 11.5115C8.98463 11.6173 8.92879 11.7216 8.86396 11.8106C8.29926 12.5871 7.72772 13.3588 7.16208 14.1346C6.96128 14.4101 6.69859 14.5 6.37269 14.4287C5.92463 14.3309 5.56517 13.8854 5.52759 13.4127Z" fill="white"/>
<path d="M7.50903 14.7692C7.58393 14.6024 7.63413 14.4178 7.73803 14.2717C8.16621 13.6688 8.6144 13.0802 9.04742 12.4808C9.23843 12.2164 9.48782 12.1406 9.79333 12.2021C10.3314 12.3106 10.7259 12.9051 10.5904 13.4115C10.5647 13.5074 10.5168 13.6025 10.4587 13.6835C10.021 14.2927 9.57762 14.898 9.13709 15.5053C8.94084 15.7759 8.67749 15.8594 8.3595 15.7867C7.8987 15.6813 7.55413 15.2531 7.55212 14.7887C7.53776 14.7821 7.5234 14.7757 7.50903 14.7692Z" fill="white"/>
<path d="M12.2926 15.1013C12.2256 15.2551 12.1808 15.4244 12.0873 15.5599C11.8286 15.9347 11.5499 16.2955 11.2785 16.6614C11.0318 16.9939 10.6971 17.0837 10.3159 16.921C9.87344 16.7322 9.59384 16.2438 9.68713 15.8059C9.70646 15.715 9.75169 15.6236 9.80592 15.5472C10.0879 15.1493 10.3781 14.7573 10.6626 14.3612C10.849 14.1014 11.1003 14.0139 11.4081 14.0683C11.8746 14.151 12.2609 14.6146 12.2926 15.1013Z" fill="white"/>
<path d="M6.25248 11.1073C6.18912 11.2567 6.14603 11.4193 6.05825 11.5524C5.89328 11.8028 5.70415 12.0373 5.52228 12.2764C5.31852 12.5445 5.05167 12.6312 4.72644 12.5395C4.20241 12.3919 3.84792 11.8217 3.98469 11.3343C4.01154 11.2387 4.06201 11.1454 4.11946 11.0638C4.28295 10.8313 4.45973 10.6083 4.62375 10.376C4.82241 10.0948 5.09395 10.0162 5.41516 10.0846C5.86563 10.1807 6.21543 10.6268 6.25248 11.1073Z" fill="white"/>
</svg>
