<svg width="263" height="65" viewBox="0 0 263 65" fill="none" xmlns="http://www.w3.org/2000/svg">
<path d="M263 65L41 65L31 50L39.5 45.5L22 36L29.5 23.5L22 9.50001L41 4.14907e-06L263 -1.52588e-05L263 65Z" fill="#0E1B2B" fill-opacity="0.7"/>
<path d="M22 53.5L16 62L11.5 63L7 51.5L10.5 38.5L22 53.5Z" fill="#0E1B2B" fill-opacity="0.7"/>
<path d="M15 21.5L7.49999 32L-8.0228e-06 27.5L6.99999 21.5L0.999991 12.5C3.33332 10.3334 8.09999 6.10002 8.49999 6.50002C8.89999 6.90002 11.3333 8.66668 12.5 9.50002L15 21.5Z" fill="#0E1B2B" fill-opacity="0.7"/>
</svg>
