<svg width="271" height="65" viewBox="0 0 271 65" fill="none" xmlns="http://www.w3.org/2000/svg">
<path d="M0 0H222L232 15L223.5 19.5L241 29L233.5 41.5L241 55.5L222 65H0V0Z" fill="#0E1B2B" fill-opacity="0.7"/>
<path d="M245 11.5L251 3L255.5 2L260 13.5L256.5 26.5L245 11.5Z" fill="#0E1B2B" fill-opacity="0.7"/>
<path d="M248 43.5L255.5 33L263 37.5L256 43.5L262 52.5C259.667 54.6667 254.9 58.9 254.5 58.5C254.1 58.1 251.667 56.3333 250.5 55.5L248 43.5Z" fill="#0E1B2B" fill-opacity="0.7"/>
<path d="M265.5 17L264 30.5L270.5 26.5L265.5 17Z" fill="#0E1B2B" fill-opacity="0.7"/>
</svg>
