<svg width="17" height="17" viewBox="0 0 17 17" fill="none" xmlns="http://www.w3.org/2000/svg">
<path d="M7.4375 8.5C7.4375 7.9123 7.9123 7.4375 8.5 7.4375C9.0877 7.4375 9.5625 7.9123 9.5625 8.5C9.5625 9.0877 9.0877 9.5625 8.5 9.5625C7.9123 9.5625 7.4375 9.0877 7.4375 8.5ZM8.5 0C9.0877 0 9.5625 0.475801 9.5625 1.0625V1.40615C12.6736 1.86834 15.1307 4.32637 15.5922 7.4375H15.9375C16.5252 7.4375 17 7.9123 17 8.5C17 9.0877 16.5252 9.5625 15.9375 9.5625H15.5922C15.1307 12.6736 12.6736 15.1307 9.5625 15.5922V15.9375C9.5625 16.5252 9.0877 17 8.5 17C7.9123 17 7.4375 16.5252 7.4375 15.9375V15.5922C4.32637 15.1307 1.86834 12.6736 1.40615 9.5625H1.0625C0.475801 9.5625 0 9.0877 0 8.5C0 7.9123 0.475801 7.4375 1.0625 7.4375H1.40615C1.86834 4.32637 4.32637 1.86834 7.4375 1.40615V1.0625C7.4375 0.475801 7.9123 0 8.5 0ZM7.4375 13.434V12.75C7.4375 12.1623 7.9123 11.6875 8.5 11.6875C9.0877 11.6875 9.5625 12.1623 9.5625 12.75V13.434C11.4982 13.0189 13.0189 11.4982 13.434 9.5625H12.75C12.1623 9.5625 11.6875 9.0877 11.6875 8.5C11.6875 7.9123 12.1623 7.4375 12.75 7.4375H13.434C13.0189 5.50176 11.4982 3.98105 9.5625 3.56602V4.25C9.5625 4.8377 9.0877 5.3125 8.5 5.3125C7.9123 5.3125 7.4375 4.8377 7.4375 4.25V3.56602C5.50176 3.98105 3.98105 5.50176 3.56602 7.4375H4.25C4.8377 7.4375 5.3125 7.9123 5.3125 8.5C5.3125 9.0877 4.8377 9.5625 4.25 9.5625H3.56602C3.98105 11.4982 5.50176 13.0189 7.4375 13.434Z" fill="white"/>
</svg>
