<svg width="13" height="16" viewBox="0 0 13 16" fill="none" xmlns="http://www.w3.org/2000/svg">
<path d="M2.00077 0.224392C2.88619 2.72996 3.33726 5.35385 3.3367 7.99447V12.3562C3.3367 12.4429 3.30034 12.5259 3.2353 12.5871C3.17044 12.6483 3.08238 12.6828 2.99065 12.6828H0.346348C0.155239 12.6828 0.000304035 12.5366 0.000304035 12.3562V7.99447C-6.13546e-05 5.35363 0.45104 2.73 1.33623 0.224397C1.383 0.0904824 1.51546 4.03936e-06 1.6651 4.03936e-06C1.81455 4.03936e-06 1.9472 0.0904868 1.99379 0.224397L2.00077 0.224392ZM6.50009 0.00241352C6.35137 0.00206885 6.21891 0.0915145 6.17141 0.224392C5.286 2.72996 4.83492 5.35385 4.83548 7.99447V12.3562C4.83548 12.4429 4.87184 12.5259 4.9367 12.5871C5.00174 12.6483 5.08981 12.6828 5.18153 12.6828H7.81891C7.91063 12.6828 7.9987 12.6483 8.06356 12.5871C8.12842 12.5259 8.16496 12.4429 8.16496 12.3562V7.99447C8.17099 5.35447 7.72574 2.73088 6.84639 0.224392C6.79687 0.0856553 6.65528 -0.00517081 6.50016 0.00241352H6.50009ZM11.6638 0.224392H11.664C11.6172 0.0904777 11.4846 0 11.3351 0C11.1857 0 11.053 0.0904821 11.0063 0.224392C10.121 2.72996 9.66996 5.35385 9.67034 7.99447V12.3562C9.67034 12.4429 9.70688 12.5259 9.77174 12.5871C9.8366 12.6483 9.92466 12.6828 10.0166 12.6828H12.6539H12.6538C12.7457 12.6828 12.8337 12.6483 12.8986 12.5871C12.9635 12.5259 13 12.4429 13 12.3562V7.99447C13.0004 5.35363 12.5493 2.73 11.6641 0.224392H11.6638ZM2.98324 13.2836H0.346044C0.154935 13.2836 0 13.4298 0 13.6102V15.2427V15.2425C0.00548131 15.4447 0.0940931 15.6369 0.247204 15.7782C0.400311 15.9197 0.605859 15.9993 0.820359 16H2.50582C2.7236 16 2.93262 15.9186 3.08702 15.7735C3.24141 15.6286 3.32856 15.4318 3.32947 15.2264V13.5939C3.32582 13.4162 3.17198 13.2738 2.98343 13.274L2.98324 13.2836ZM7.82891 13.2836H5.18133C4.99022 13.2836 4.83529 13.4298 4.83529 13.6102V15.2427V15.2425C4.84059 15.4447 4.92938 15.6369 5.08249 15.7782C5.2356 15.9197 5.44115 15.9993 5.65546 16H7.34457C7.56181 15.9991 7.76991 15.9174 7.92357 15.7725C8.07704 15.6276 8.16383 15.4313 8.16474 15.2263V13.5939C8.1609 13.4162 8.00706 13.2738 7.8187 13.274L7.82891 13.2836ZM12.6746 13.2836H10.0166C9.82528 13.2836 9.67035 13.4298 9.67035 13.6102V15.2427V15.2425C9.67583 15.4452 9.76499 15.6379 9.91883 15.7794C10.0728 15.9209 10.2793 16.0002 10.4942 16H12.1796C12.3969 15.9991 12.605 15.9174 12.7586 15.7725C12.9123 15.6276 12.9991 15.4312 13 15.2263V13.5939C12.9962 13.4162 12.8423 13.2738 12.6538 13.274L12.6746 13.2836Z" fill="white"/>
</svg>
