<svg width="15" height="17" viewBox="0 0 15 17" fill="red" xmlns="http://www.w3.org/2000/svg">
<path d="M13.9553 9.18162C13.9998 9.39837 14.235 9.63353 14.3477 9.72419L14.754 7.72672C15.1464 5.59324 14.4409 3.89043 14.0402 3.30535C12.7183 0.840378 10.2206 0.129219 9.13662 0.081053C5.92926 -0.305693 3.9798 0.785128 3.40512 1.38012C1.69082 2.52053 1.02848 4.68942 0.911592 5.63007C0.732092 6.90789 1.16345 8.8912 1.40139 9.72419C1.41531 9.71003 1.48766 9.64203 1.66717 9.48195C1.89119 9.2822 1.72282 9.02579 2.05956 8.39821C2.32812 7.89672 2.67599 7.62755 2.81653 7.55672C2.34621 7.9548 2.15279 8.77787 2.11661 9.13912C2.06513 9.39128 1.8578 9.98061 1.44314 10.3234C0.925507 10.7513 1.05074 11.8067 1.13562 12.0348C1.21911 12.2628 1.8077 13.433 2.18619 13.6752C2.56467 13.9175 3.26458 14.1456 3.9798 14.1739C4.5517 14.1966 4.6658 14.6301 4.65189 14.844L4.72146 16.085C4.81052 16.313 4.94549 16.4278 5.00115 16.4561C5.38241 16.6955 5.99049 16.8315 6.24791 16.8698C7.1162 17.0979 9.00861 16.9987 9.96038 16.7848C10.7229 16.6134 11.0165 16.2479 11.0666 16.0864C11.0763 16.1246 11.0889 16.0637 11.0666 15.5155C11.0388 14.8312 11.1223 14.6456 11.2489 14.3878C11.3505 14.1824 12.1227 14.0747 12.4957 14.045C13.3612 13.977 13.8941 13.3707 14.0527 13.076C14.569 12.4257 14.697 11.6069 14.697 11.2783C14.6524 10.696 14.2489 10.1988 14.0527 10.0231C13.8176 9.86444 13.6088 9.09095 13.5337 8.72546C13.5114 8.35996 13.1705 7.80322 13.0022 7.57089C13.5059 7.79897 13.8468 8.73962 13.9553 9.18162ZM3.93806 12.3747C2.84297 12.3507 2.54658 11.3293 2.55215 10.6833C2.55771 10.1251 2.79844 9.60803 2.95985 9.44228C3.27572 9.11787 3.85735 8.83312 5.4492 9.4182C7.04245 10.0047 6.8866 11.0431 6.6097 11.4893C6.04197 12.1453 4.59205 12.3535 3.93806 12.3747ZM8.6023 14.0889C8.36435 14.1186 8.16815 13.9316 8.11249 13.8891C8.05684 13.8466 7.74375 13.8126 7.65052 13.8891C7.5573 13.9656 7.4265 14.0889 7.20247 14.0889C6.92278 14.0889 6.62779 13.8325 6.62779 13.6327C6.62779 13.4727 6.65562 13.3664 6.66953 13.3338L7.44041 11.8648C7.58512 11.6409 7.965 11.3278 8.32261 11.8648C8.32261 11.8988 8.81797 12.8777 9.06566 13.3622C9.13523 13.5747 9.1408 14.0195 8.6023 14.0889ZM13.1705 10.5657C13.2331 11.1196 13.0578 11.6636 12.9187 11.8492C12.6445 12.2118 12.1019 12.5674 10.4502 12.1892C8.79849 11.8109 8.82632 10.7598 9.04618 10.2824C9.52902 9.55986 10.9428 9.16887 11.5884 9.06404C12.6779 8.94929 13.0968 9.92394 13.1705 10.5657Z" fill="white"/>
</svg>
